<?xml version="1.0" encoding="utf-8"?>
<!-- Generator: Adobe Illustrator 25.4.1, SVG Export Plug-In . SVG Version: 6.00 Build 0)  -->
<svg version="1.1" id="Layer_1" xmlns="http://www.w3.org/2000/svg" xmlns:xlink="http://www.w3.org/1999/xlink" x="0px" y="0px"
	 viewBox="0 0 477.5 70.1" style="enable-background:new 0 0 477.5 70.1;" xml:space="preserve">
<style type="text/css">
	.st0{enable-background:new    ;}
	.st1{fill:#4285F4;}
</style>
<g>
	<g class="st0">
		<path class="st1" d="M53.6,19.4V19c0-3.5-2.9-6.4-6.4-6.4H18.8c-3.5,0-6.4,2.9-6.4,6.4v0.4c0,3.5,2.9,6.4,6.4,6.4H44
			c6.5,0,12.3,2.8,16.3,7.2c0.3,0.3,0.5,0.6,0.8,0.9c3.1,3.8,5,8.7,5,14C66.1,60.1,56.2,70,44,70H22.1C9.9,70,0,60.1,0,47.9h12.5
			c0,5.3,4.3,9.6,9.6,9.6H44c5.3,0,9.7-4.3,9.7-9.6c0-5.3-4.4-9.6-9.7-9.6H18.8c-5.1,0-9.7-2-13.1-5.3c-0.9-0.9-1.7-1.9-2.4-3
			C1.2,27,0,23.3,0,19.3v-0.4C0,8.5,8.4,0,18.8,0h28.4c10.4,0,18.9,8.5,18.9,18.9v0.4L53.6,19.4z"/>
		<path class="st1" d="M146.1,0v70h-12.5V25.4l-12.3,9.4l-10.2,7.9l-10.2-7.9l-12.3-9.4V70H76.1V0l12.5,9.6l22.5,17.3l22.5-17.3
			L146.1,0z"/>
		<path class="st1" d="M217.2,57.5L187.9,0l-29.3,57.5L152.2,70h14l6.4-12.5l1.1-2.1h28.5l1.1,2.1l6.4,12.5h14L217.2,57.5z
			 M179.8,43.5l8.1-16l8.1,16H179.8z"/>
		<path class="st1" d="M286.1,57.6l6.4,12.5h-14l-6.4-12.5l-6.7-13.1l-0.3-0.6c-2.2-3.6-6.1-6-10.6-6H242v32.2h-12.5v-70h44.2
			c5.2,0,9.9,2.1,13.3,5.5c3.4,3.5,5.5,8.2,5.5,13.4c0,7.6-4.5,14.2-11,17.2c-1.7,0.8-3.5,1.3-5.4,1.5L286.1,57.6z M273.7,25.4
			c0.9,0,1.8-0.2,2.6-0.6c2.3-1,3.8-3.3,3.8-5.8c0-2.3-1.2-3.9-1.9-4.6c-0.8-0.8-2.3-1.8-4.5-1.8H242v12.9L273.7,25.4z"/>
		<path class="st1" d="M369.2,0.1v12.5h-28.7v57.5H328V12.6h-28.7V0.1H369.2z"/>
		<path class="st1" d="M391.8,18.9v6.5h45v12.5h-45v13.2c0,3.5,2.9,6.4,6.4,6.4h51.1V70h-51.1c-10.4,0-18.8-8.5-18.8-18.9V18.9
			c0-10.4,8.4-18.9,18.8-18.9h51.1v12.5h-51.1C394.7,12.5,391.8,15.4,391.8,18.9z"/>
	</g>
	<g class="st0">
		<path class="st1" d="M465.5,59.5v1.9h-4.3V70h-1.9v-8.6H455v-1.9H465.5z"/>
		<path class="st1" d="M477.5,59.5V70h-1.9v-6.7l-1.8,1.4l-1.5,1.2l-1.5-1.2l-1.8-1.4V70H467V59.5l1.9,1.4l3.4,2.6l3.4-2.6
			L477.5,59.5z"/>
	</g>
	<circle class="st1" cx="359.8" cy="37.3" r="7.6"/>
</g>
</svg>
